# xmcd
#
# Track frame offsets: 
#        150
#        20592
#        32342
#        44655
#        63917
#        81950
#        94015
#        127802
#        148597
#        167865
#        182667
#        199050
#        218042
#        232947
#        258257
#
# Disc length: 3826 seconds
#
# Revision: 6
# Processed by: cddbd v1.5.2PL0 Copyright (c) Steve Scherf et al.
# Submitted via: ExactAudioCopyFreeDBPlugin 1.0
#
DISCID=c60ef00f
DTITLE=Various Artist - Dixieland Forever Vol. 2
DYEAR=1997
DGENRE=Dixie
TTITLE0=The Tremble Kids - Margie
TTITLE1=Rod Mason - Black Cat On A Fence
TTITLE2=Chris Barber - Alligator Hop
TTITLE3=Dave Shepherd's Jazz Band - Jazz Me Blues
TTITLE4=The Tremble Kids All Stars - The Afternoon Shuffle Boogie
TTITLE5=Rod Mason - Potato Head Blues
TTITLE6=Chris Barber - Royal Garden Blues
TTITLE7=John Barnes Dixieland Band - Washboard Blues
TTITLE8=Mr. Acker Bilk - It's You Or No One
TTITLE9=Papa Bue - Smiles (When You're Smiling)
TTITLE10=Chris Barber - Tiger Rag
TTITLE11=The Tremble Kids - On The Sunny Side Of The Street
TTITLE12=Chris Barber - South Rampart Street Parade
TTITLE13=The Tremble Kids - I Loves You, Porgy - Strike Up the Band
TTITLE14=Chris Barber - At The Jazz Band Ball
EXTD=
EXTT0=
EXTT1=
EXTT2=
EXTT3=
EXTT4=
EXTT5=
EXTT6=
EXTT7=
EXTT8=
EXTT9=
EXTT10=
EXTT11=
EXTT12=
EXTT13=
EXTT14=
PLAYORDER=
